<svg width="201" height="23" viewBox="0 0 201 23" fill="none" xmlns="http://www.w3.org/2000/svg">
<path d="M51.54 13.062C51.162 14.502 50.028 15.672 48.21 15.672C46.23 15.672 44.34 13.782 44.34 11.172C44.34 8.56198 46.23 6.67198 48.21 6.67198C49.938 6.67198 51.072 7.84198 51.45 9.28198H52.98C52.35 7.12198 50.64 5.41198 48.21 5.41198C45.42 5.41198 42.9 7.93198 42.9 11.172C42.9 14.412 45.42 16.932 48.21 16.932C50.73 16.932 52.44 15.222 53.07 13.062H51.54Z" fill="#58595B"/>
<path d="M58.68 15.672C57.42 15.672 56.25 14.52 56.25 12.792C56.25 11.064 57.42 9.91198 58.68 9.91198C59.922 9.91198 61.11 11.064 61.11 12.792C61.11 14.52 59.922 15.672 58.68 15.672ZM58.68 16.932C60.768 16.932 62.46 15.222 62.46 12.792C62.46 10.362 60.768 8.65198 58.68 8.65198C56.592 8.65198 54.9 10.362 54.9 12.792C54.9 15.222 56.592 16.932 58.68 16.932ZM64.2642 16.842H65.6142V12.162C65.6142 10.794 66.4962 9.91198 67.7742 9.91198C68.8362 9.91198 69.7542 10.812 69.7542 12.162V16.842H71.1042V12.162C71.1042 10.092 69.6642 8.65198 67.9542 8.65198C67.1802 8.65198 66.6222 8.88598 66.2082 9.15598C65.9742 9.29998 65.7762 9.46198 65.6142 9.64198L65.2542 8.74198H64.2642V16.842ZM73.3521 16.842H74.7021V12.162C74.7021 10.794 75.5841 9.91198 76.8621 9.91198C77.9241 9.91198 78.8421 10.812 78.8421 12.162V16.842H80.1921V12.162C80.1921 10.092 78.7521 8.65198 77.0421 8.65198C76.2681 8.65198 75.7101 8.88598 75.2961 9.15598C75.0621 9.29998 74.8641 9.46198 74.7021 9.64198L74.3421 8.74198H73.3521V16.842ZM87.75 14.682C87.48 15.06 86.832 15.672 85.77 15.672C84.492 15.672 83.43 14.592 83.34 13.422H89.28L89.316 13.224C89.334 13.098 89.37 12.936 89.37 12.702C89.37 10.254 87.66 8.65198 85.68 8.65198C83.718 8.65198 81.9 10.362 81.9 12.792C81.9 15.222 83.61 16.932 85.77 16.932C87.57 16.932 88.65 15.852 89.19 14.682H87.75ZM83.34 12.252C83.538 10.902 84.51 9.91198 85.68 9.91198C86.85 9.91198 87.822 10.902 88.02 12.252H83.34ZM96.5763 13.962C96.2883 14.862 95.4783 15.672 94.4163 15.672C93.1563 15.672 91.9863 14.52 91.9863 12.792C91.9863 11.064 93.1563 9.91198 94.4163 9.91198C95.4783 9.91198 96.2883 10.722 96.5763 11.622H97.9263C97.5483 9.98398 96.2163 8.65198 94.4163 8.65198C92.3283 8.65198 90.6363 10.362 90.6363 12.792C90.6363 15.222 92.3283 16.932 94.4163 16.932C96.2163 16.932 97.5483 15.6 97.9263 13.962H96.5763ZM100.261 14.232C100.261 15.852 101.359 16.932 102.601 16.932C102.853 16.932 103.051 16.896 103.213 16.842C103.285 16.824 103.357 16.788 103.411 16.752V15.582L103.285 15.636C103.195 15.654 103.087 15.672 102.961 15.672C102.151 15.672 101.611 15.15 101.611 14.232V10.002H103.411V8.74198H101.611V6.58198H100.441V7.75198C100.441 8.41798 100.117 8.74198 99.4514 8.74198H98.8214V10.002H100.261V14.232ZM109.534 16.842H110.974V11.802H115.474V10.542H110.974V6.76198H116.464V5.50198H109.534V16.842ZM118.534 16.842H119.974V5.50198H118.534V16.842ZM122.858 16.842H129.698V15.582H124.298V5.50198H122.858V16.842ZM131.314 16.842H132.754V5.50198H131.314V16.842Z" fill="#58595B"/>
<path d="M135.71 16.842H137.15V12.522H139.58C141.542 12.522 143.18 10.902 143.18 9.01198C143.18 7.12198 141.542 5.50198 139.58 5.50198H135.71V16.842ZM137.15 11.262V6.76198H139.58C140.75 6.76198 141.74 7.75198 141.74 9.01198C141.74 10.272 140.75 11.262 139.58 11.262H137.15Z" fill="#58595B"/>
<path d="M144.27 16.842H145.8L146.88 14.052H151.56L152.64 16.842H154.17L149.85 5.50198H148.59L144.27 16.842ZM147.33 12.792L149.22 7.84198L151.11 12.792H147.33Z" fill="#58595B"/>
<path d="M158.14 16.842H159.58V12.432L163.27 5.50198H161.74L158.86 10.902L155.98 5.50198H154.45L158.14 12.432V16.842Z" fill="#58595B"/>
<path d="M173.54 13.062C173.162 14.502 172.028 15.672 170.21 15.672C168.23 15.672 166.34 13.782 166.34 11.172C166.34 8.56198 168.23 6.67198 170.21 6.67198C171.938 6.67198 173.072 7.84198 173.45 9.28198H174.98C174.35 7.12198 172.64 5.41198 170.21 5.41198C167.42 5.41198 164.9 7.93198 164.9 11.172C164.9 14.412 167.42 16.932 170.21 16.932C172.73 16.932 174.44 15.222 175.07 13.062H173.54Z" fill="#4F4F4F"/>
<path d="M182.57 16.842H183.56V11.442C183.56 9.92998 182.3 8.65198 180.5 8.65198C178.7 8.65198 177.638 9.73198 177.44 11.082H178.88C179.078 10.362 179.492 9.91198 180.5 9.91198C181.508 9.91198 182.21 10.632 182.21 11.442V11.892C178.16 11.892 177.08 12.972 177.08 14.502C177.08 15.852 178.16 16.932 179.78 16.932C180.59 16.932 181.184 16.716 181.598 16.446C181.832 16.302 182.03 16.14 182.21 15.942L182.57 16.842ZM182.21 13.782C182.21 14.682 181.22 15.672 179.78 15.672C178.97 15.672 178.43 15.15 178.43 14.592C178.43 13.692 178.97 13.152 182.21 13.152V13.782ZM185.807 16.842H187.157V12.252C187.157 10.884 188.039 10.002 189.317 10.002H189.677V8.65198H189.497C188.723 8.65198 188.165 8.88598 187.751 9.15598C187.517 9.29998 187.319 9.46198 187.157 9.64198L186.797 8.74198H185.807V16.842ZM194.534 15.672C193.184 15.672 192.014 14.52 192.014 12.792C192.014 11.064 193.184 9.91198 194.534 9.91198C195.884 9.91198 197.054 11.064 197.054 12.792C197.054 14.52 195.884 15.672 194.534 15.672ZM197.234 16.842H198.224V5.50198H196.874V9.73198C196.694 9.53398 196.496 9.35398 196.262 9.19198C195.848 8.92198 195.254 8.65198 194.444 8.65198C192.356 8.65198 190.664 10.362 190.664 12.792C190.664 15.222 192.356 16.932 194.444 16.932C195.254 16.932 195.848 16.716 196.262 16.446C196.496 16.302 196.694 16.14 196.874 15.942L197.234 16.842Z" fill="#58595B"/>
<path d="M10.4 22C15.3153 22 19.3 18.0154 19.3 13.1C19.3 8.18469 15.3153 4.20001 10.4 4.20001C5.48467 4.20001 1.5 8.18469 1.5 13.1C1.5 18.0154 5.48467 22 10.4 22Z" stroke="#2E3191" stroke-width="2" stroke-miterlimit="10"/>
<path d="M9.76998 16.655H11.03V13.685H13.82V12.515H11.03V9.54501H9.76998V12.515H6.97998V13.685H9.76998V16.655Z" fill="#2E3191"/>
</svg>
