<svg width="82" height="83" viewBox="0 0 82 83" fill="none" xmlns="http://www.w3.org/2000/svg">
<path d="M41.1002 1.89999C62.9002 1.89999 80.5002 19.6 80.5002 41.3C80.5002 63 62.8002 80.7 41.1002 80.7C19.4002 80.7 1.7002 63 1.7002 41.3C1.7002 19.5 19.3002 1.89999 41.1002 1.89999Z" fill="#B5E1EE" stroke="#53A1D8" stroke-width="3"/>
<path d="M54.1133 20.792C54.1133 16.492 48.3133 13.292 40.6133 13.292C32.9133 13.292 27.1133 16.492 27.1133 20.792C27.1133 21.592 27.8133 22.292 28.6133 22.292H52.6133C53.5133 22.292 54.1133 21.692 54.1133 20.792Z" fill="#18467E"/>
<path d="M37.4135 55.692L38.6135 53.992L36.8135 52.592L37.4135 55.692Z" fill="#18467E"/>
<path d="M42.4132 64.392L43.2132 59.692L40.6132 56.292L38.0132 59.692L38.8132 64.392H42.4132Z" fill="#18467E"/>
<path d="M44.5134 52.592L42.7134 53.992L43.9134 55.692L44.5134 52.592Z" fill="#18467E"/>
<path d="M32.7134 46.392L31.9134 46.492C25.7134 47.492 21.2134 52.792 21.2134 58.992V64.292H35.9134L32.7134 46.392Z" fill="#18467E"/>
<path d="M60.1132 59.092C60.1132 52.792 55.5132 47.492 49.4132 46.592L48.6132 46.492L45.5132 64.492H60.1132V59.092Z" fill="#18467E"/>
<path d="M45.6133 46.092C45.0133 46.192 44.3133 46.292 43.6133 46.292H37.6133C36.9133 46.292 36.3133 46.192 35.6133 46.092L35.9133 48.092L40.5133 51.892L45.1133 48.092L45.6133 46.092Z" fill="#18467E"/>
<path d="M37.6133 43.392H43.6133C47.7133 43.392 51.1133 39.992 51.1133 35.892V31.992C50.2133 32.492 49.2133 32.792 48.1133 32.792H33.1133C32.0133 32.792 31.0133 32.492 30.1133 31.992V35.892C30.2133 39.992 33.5133 43.292 37.6133 43.392Z" fill="#18467E"/>
<path d="M33.2134 29.792H48.2134C49.9134 29.792 51.2134 28.492 51.2134 26.792V25.292H30.2134V26.792C30.2134 28.392 31.5134 29.792 33.2134 29.792Z" fill="#18467E"/>
</svg>
