<svg width="86" height="87" viewBox="0 0 86 87" fill="none" xmlns="http://www.w3.org/2000/svg">
<path d="M43.1002 85C65.9648 85 84.5002 66.4646 84.5002 43.6C84.5002 20.7354 65.9648 2.20001 43.1002 2.20001C20.2356 2.20001 1.7002 20.7354 1.7002 43.6C1.7002 66.4646 20.2356 85 43.1002 85Z" fill="#B5E1EE" stroke="#53A1D8" stroke-width="3" stroke-miterlimit="10"/>
<path d="M69.7002 29.8V26H16.7002V29.9H18.0002V58H16.7002V61.9H69.7002V58H68.4002V29.8H69.7002ZM60.4002 31.6H62.9002V32.4H61.3002V33.4H62.8002V34.2H61.3002V35.3H62.9002V36.1H60.4002V31.6ZM56.3002 31.6H57.6002C58.1002 31.6 58.5002 31.7 58.9002 31.9C59.2002 32.1 59.4002 32.5 59.3002 32.9C59.3002 33.1 59.2002 33.4 59.1002 33.6C58.9002 33.8 58.7002 34 58.5002 34.1C59.2002 35.1 59.6002 35.7 59.8002 36H58.8002L57.8002 34.3H57.3002V36H56.4002L56.3002 31.6ZM51.8002 32.1C52.7002 31.3 54.0002 31.3 54.9002 32.1C55.3002 32.6 55.5002 33.2 55.4002 33.8C55.4002 34.4 55.2002 35 54.9002 35.5C54.0002 36.3 52.7002 36.3 51.8002 35.5C51.4002 35 51.2002 34.4 51.3002 33.8C51.2002 33.2 51.4002 32.6 51.8002 32.1ZM47.5002 31.6H50.8002V32.4H49.6002V36H48.7002V32.4H47.4002L47.5002 31.6ZM33.4002 58H23.4002V38.5H33.4002V58ZM37.6002 38.8H44.0002V50.8H37.6002V38.8ZM39.4002 57.1C38.6002 57.1 37.9002 56.4 37.9002 55.6C37.9002 54.8 38.6002 54.1 39.4002 54.1C40.2002 54.1 40.9002 54.8 40.9002 55.6C40.9002 56.4 40.2002 57.1 39.4002 57.1ZM44.8002 57.1C45.6002 57.1 46.3002 56.4 46.3002 55.5C46.3002 54.7 45.6002 54 44.7002 54C43.8002 54 43.2002 54.7 43.2002 55.6C43.2002 56.4 43.9002 57.1 44.8002 57.1ZM46.7002 35.7C46.4002 35.9 45.9002 36.1 45.5002 36C45.1002 36 44.6002 35.9 44.3002 35.7V34.8C44.5002 34.9 44.8002 35 45.1002 35.1C45.3002 35.2 45.5002 35.2 45.7002 35.2C45.9002 35.2 46.0002 35.2 46.2002 35.1C46.3002 35 46.4002 34.9 46.4002 34.7C46.4002 34.6 46.4002 34.5 46.3002 34.5C46.2002 34.4 46.2002 34.4 46.1002 34.3C46.0002 34.2 45.8002 34.1 45.5002 34C45.3002 33.9 45.1002 33.8 44.9002 33.6C44.8002 33.5 44.7002 33.4 44.6002 33.2C44.5002 33 44.5002 32.9 44.5002 32.7C44.5002 32.4 44.6002 32 44.9002 31.8C45.2002 31.6 45.6002 31.4 46.0002 31.5C46.2002 31.5 46.4002 31.5 46.6002 31.6C46.8002 31.7 47.0002 31.7 47.2002 31.8L46.9002 32.5C46.7002 32.4 46.5002 32.4 46.3002 32.3C46.1002 32.3 46.0002 32.3 45.8002 32.3C45.7002 32.3 45.5002 32.3 45.4002 32.4C45.3002 32.5 45.3002 32.6 45.3002 32.7C45.3002 32.8 45.3002 32.8 45.4002 32.9C45.4002 33 45.5002 33 45.6002 33.1C45.7002 33.2 45.9002 33.3 46.2002 33.4C46.5002 33.5 46.8002 33.7 47.0002 34C47.2002 34.6 47.1002 35.3 46.7002 35.7ZM50.1002 57.1C50.9002 57.1 51.6002 56.4 51.6002 55.5C51.6002 54.7 50.9002 54 50.0002 54C49.1002 54 48.5002 54.7 48.5002 55.6C48.6002 56.4 49.2002 57.1 50.1002 57.1ZM53.5002 50.8H47.1002V38.8H53.5002V50.8ZM55.4002 57.1C56.2002 57.1 56.9002 56.4 56.9002 55.5C56.9002 54.7 56.2002 54 55.3002 54C54.4002 54 53.8002 54.7 53.8002 55.6C53.9002 56.4 54.6002 57.1 55.4002 57.1ZM60.8002 57.1C61.6002 57.1 62.3002 56.4 62.3002 55.5C62.3002 54.7 61.6002 54 60.7002 54C59.8002 54 59.2002 54.7 59.2002 55.6C59.2002 56.4 59.9002 57.1 60.8002 57.1ZM63.1002 50.8H56.7002V38.8H63.1002V50.8Z" fill="#18467E"/>
</svg>
